# MagicaVoxel @ Ephtracy

# group
o 

# material
mtllib bug.vox.mtl
usemtl palette

# normals
vn -1 0 0
vn 1 0 0
vn 0 0 1
vn 0 0 -1
vn 0 -1 0
vn 0 1 0

# texcoords
vt 0.306641 0.5
vt 0.962891 0.5
vt 0.970703 0.5
vt 0.986328 0.5

# verts
v -0.7 0 -5.96046e-08
v -0.7 0 -0.1
v -0.7 0.1 -5.96046e-08
v -0.7 0.1 -0.1
v -0.6 0 0.5
v -0.6 0 0.3
v -0.6 0 0.2
v -0.6 0 -5.96046e-08
v -0.6 0 -0.2
v -0.6 0 -0.5
v -0.6 0.1 0.5
v -0.6 0.1 0.3
v -0.6 0.1 0.2
v -0.6 0.1 -5.96046e-08
v -0.6 0.1 -0.2
v -0.6 0.1 -0.5
v -0.5 0.1 0.4
v -0.5 0.1 0.3
v -0.5 0.1 0.2
v -0.5 0.1 0.0999999
v -0.5 0.1 -0.2
v -0.5 0.1 -0.3
v -0.5 0.2 0.4
v -0.5 0.2 0.3
v -0.5 0.2 0.2
v -0.5 0.2 0.0999999
v -0.5 0.2 -0.2
v -0.5 0.2 -0.3
v -0.4 0.1 0.5
v -0.4 0.1 0.4
v -0.4 0.1 0.3
v -0.4 0.1 0.2
v -0.4 0.1 0.0999999
v -0.4 0.1 -0.2
v -0.4 0.1 -0.3
v -0.4 0.1 -1.1
v -0.4 0.2 0.4
v -0.4 0.2 0.3
v -0.4 0.2 0.2
v -0.4 0.2 0.0999999
v -0.4 0.2 -0.2
v -0.4 0.2 -0.3
v -0.4 0.2 -0.4
v -0.4 0.3 -0.2
v -0.4 0.3 -0.3
v -0.4 0.3 -0.4
v -0.4 0.4 0.5
v -0.4 0.4 -0.2
v -0.4 0.4 -0.3
v -0.4 0.4 -1.1
v -0.3 0.3 0.6
v -0.3 0.3 0.5
v -0.3 0.3 -0.2
v -0.3 0.3 -0.3
v -0.3 0.4 0.5
v -0.3 0.4 -0.2
v -0.3 0.4 -0.3
v -0.3 0.5 0.5
v -0.3 0.5 0.2
v -0.3 0.6 0.6
v -0.3 0.6 0.2
v -0.2 0.3 -0.3
v -0.2 0.3 -0.4
v -0.2 0.4 -0.3
v -0.2 0.4 -0.4
v 0.2 0.3 0.6
v 0.2 0.3 0.5
v 0.2 0.3 -0.2
v 0.2 0.3 -0.3
v 0.2 0.4 0.5
v 0.2 0.4 -0.2
v 0.2 0.4 -0.3
v 0.2 0.5 0.5
v 0.2 0.5 0.2
v 0.2 0.6 0.6
v 0.2 0.6 0.2
v 0.3 0.3 -0.3
v 0.3 0.3 -0.4
v 0.3 0.4 -0.3
v 0.3 0.4 -0.4
v 0.4 0 0.4
v 0.4 0 0.3
v 0.4 0 0.2
v 0.4 0 0.0999999
v 0.4 0 -0.2
v 0.4 0 -0.3
v 0.4 0.1 0.4
v 0.4 0.1 0.3
v 0.4 0.1 0.2
v 0.4 0.1 0.0999999
v 0.4 0.1 -0.2
v 0.4 0.1 -0.3
v 0.5 0 0.5
v 0.5 0 0.4
v 0.5 0 0.0999999
v 0.5 0 -0.1
v 0.5 0 -0.3
v 0.5 0 -0.5
v 0.5 0.1 0.5
v 0.5 0.1 0.4
v 0.5 0.1 0.0999999
v 0.5 0.1 -0.1
v 0.5 0.1 -0.3
v 0.5 0.1 -0.5
v -0.5 0 0.5
v -0.5 0 0.4
v -0.5 0 0.0999999
v -0.5 0 -0.1
v -0.5 0 -0.3
v -0.5 0 -0.5
v -0.5 0.1 0.5
v -0.5 0.1 0.4
v -0.5 0.1 0.0999999
v -0.5 0.1 -0.1
v -0.5 0.1 -0.3
v -0.5 0.1 -0.5
v -0.4 0 0.4
v -0.4 0 0.3
v -0.4 0 0.2
v -0.4 0 0.0999999
v -0.4 0 -0.2
v -0.4 0 -0.3
v -0.4 0.1 0.4
v -0.4 0.1 0.3
v -0.4 0.1 0.2
v -0.4 0.1 0.0999999
v -0.4 0.1 -0.2
v -0.4 0.1 -0.3
v -0.3 0.3 -0.3
v -0.3 0.3 -0.4
v -0.3 0.4 -0.3
v -0.3 0.4 -0.4
v -0.2 0.3 0.6
v -0.2 0.3 0.5
v -0.2 0.3 -0.2
v -0.2 0.3 -0.3
v -0.2 0.4 0.5
v -0.2 0.4 -0.2
v -0.2 0.4 -0.3
v -0.2 0.5 0.5
v -0.2 0.5 0.2
v -0.2 0.6 0.6
v -0.2 0.6 0.2
v 0.2 0.3 -0.3
v 0.2 0.3 -0.4
v 0.2 0.4 -0.3
v 0.2 0.4 -0.4
v 0.3 0.3 0.6
v 0.3 0.3 0.5
v 0.3 0.3 -0.2
v 0.3 0.3 -0.3
v 0.3 0.4 0.5
v 0.3 0.4 -0.2
v 0.3 0.4 -0.3
v 0.3 0.5 0.5
v 0.3 0.5 0.2
v 0.3 0.6 0.6
v 0.3 0.6 0.2
v 0.4 0.1 0.5
v 0.4 0.1 0.4
v 0.4 0.1 0.3
v 0.4 0.1 0.2
v 0.4 0.1 0.0999999
v 0.4 0.1 -0.2
v 0.4 0.1 -0.3
v 0.4 0.1 -1.1
v 0.4 0.2 0.4
v 0.4 0.2 0.3
v 0.4 0.2 0.2
v 0.4 0.2 0.0999999
v 0.4 0.2 -0.2
v 0.4 0.2 -0.3
v 0.4 0.2 -0.4
v 0.4 0.3 -0.2
v 0.4 0.3 -0.3
v 0.4 0.3 -0.4
v 0.4 0.4 0.5
v 0.4 0.4 -0.2
v 0.4 0.4 -0.3
v 0.4 0.4 -1.1
v 0.5 0.1 0.4
v 0.5 0.1 0.3
v 0.5 0.1 0.2
v 0.5 0.1 0.0999999
v 0.5 0.1 -0.2
v 0.5 0.1 -0.3
v 0.5 0.2 0.4
v 0.5 0.2 0.3
v 0.5 0.2 0.2
v 0.5 0.2 0.0999999
v 0.5 0.2 -0.2
v 0.5 0.2 -0.3
v 0.6 0 0.5
v 0.6 0 0.3
v 0.6 0 0.2
v 0.6 0 -5.96046e-08
v 0.6 0 -0.2
v 0.6 0 -0.5
v 0.6 0.1 0.5
v 0.6 0.1 0.3
v 0.6 0.1 0.2
v 0.6 0.1 -5.96046e-08
v 0.6 0.1 -0.2
v 0.6 0.1 -0.5
v 0.7 0 -5.96046e-08
v 0.7 0 -0.1
v 0.7 0.1 -5.96046e-08
v 0.7 0.1 -0.1
v -0.3 0.3 0.6
v -0.3 0.6 0.6
v -0.2 0.3 0.6
v -0.2 0.6 0.6
v 0.2 0.3 0.6
v 0.2 0.6 0.6
v 0.3 0.3 0.6
v 0.3 0.6 0.6
v -0.6 0 0.5
v -0.6 0.1 0.5
v -0.5 0 0.5
v -0.5 0.1 0.5
v -0.4 0.1 0.5
v -0.4 0.4 0.5
v -0.3 0.3 0.5
v -0.3 0.4 0.5
v -0.2 0.3 0.5
v -0.2 0.4 0.5
v 0.2 0.3 0.5
v 0.2 0.4 0.5
v 0.3 0.3 0.5
v 0.3 0.4 0.5
v 0.4 0.1 0.5
v 0.4 0.4 0.5
v 0.5 0 0.5
v 0.5 0.1 0.5
v 0.6 0 0.5
v 0.6 0.1 0.5
v -0.5 0 0.4
v -0.5 0.1 0.4
v -0.5 0.2 0.4
v -0.4 0 0.4
v -0.4 0.1 0.4
v -0.4 0.2 0.4
v 0.4 0 0.4
v 0.4 0.1 0.4
v 0.4 0.2 0.4
v 0.5 0 0.4
v 0.5 0.1 0.4
v 0.5 0.2 0.4
v -0.6 0 0.2
v -0.6 0.1 0.2
v -0.5 0.1 0.2
v -0.5 0.2 0.2
v -0.4 0 0.2
v -0.4 0.1 0.2
v -0.4 0.2 0.2
v 0.4 0 0.2
v 0.4 0.1 0.2
v 0.4 0.2 0.2
v 0.5 0.1 0.2
v 0.5 0.2 0.2
v 0.6 0 0.2
v 0.6 0.1 0.2
v -0.7 0 -5.96046e-08
v -0.7 0.1 -5.96046e-08
v -0.6 0 -5.96046e-08
v -0.6 0.1 -5.96046e-08
v 0.6 0 -5.96046e-08
v 0.6 0.1 -5.96046e-08
v 0.7 0 -5.96046e-08
v 0.7 0.1 -5.96046e-08
v -0.6 0 -0.2
v -0.6 0.1 -0.2
v -0.5 0.1 -0.2
v -0.5 0.2 -0.2
v -0.4 0 -0.2
v -0.4 0.1 -0.2
v -0.4 0.2 -0.2
v 0.4 0 -0.2
v 0.4 0.1 -0.2
v 0.4 0.2 -0.2
v 0.5 0.1 -0.2
v 0.5 0.2 -0.2
v 0.6 0 -0.2
v 0.6 0.1 -0.2
v -0.4 0.3 -0.3
v -0.4 0.4 -0.3
v -0.3 0.3 -0.3
v -0.3 0.4 -0.3
v -0.2 0.3 -0.3
v -0.2 0.4 -0.3
v 0.2 0.3 -0.3
v 0.2 0.4 -0.3
v 0.3 0.3 -0.3
v 0.3 0.4 -0.3
v 0.4 0.3 -0.3
v 0.4 0.4 -0.3
v -0.3 0.3 -0.4
v -0.3 0.4 -0.4
v -0.2 0.3 -0.4
v -0.2 0.4 -0.4
v 0.2 0.3 -0.4
v 0.2 0.4 -0.4
v 0.3 0.3 -0.4
v 0.3 0.4 -0.4
v -0.3 0.4 0.5
v -0.3 0.5 0.5
v -0.2 0.4 0.5
v -0.2 0.5 0.5
v 0.2 0.4 0.5
v 0.2 0.5 0.5
v 0.3 0.4 0.5
v 0.3 0.5 0.5
v -0.6 0 0.3
v -0.6 0.1 0.3
v -0.5 0.1 0.3
v -0.5 0.2 0.3
v -0.4 0 0.3
v -0.4 0.1 0.3
v -0.4 0.2 0.3
v 0.4 0 0.3
v 0.4 0.1 0.3
v 0.4 0.2 0.3
v 0.5 0.1 0.3
v 0.5 0.2 0.3
v 0.6 0 0.3
v 0.6 0.1 0.3
v -0.3 0.5 0.2
v -0.3 0.6 0.2
v -0.2 0.5 0.2
v -0.2 0.6 0.2
v 0.2 0.5 0.2
v 0.2 0.6 0.2
v 0.3 0.5 0.2
v 0.3 0.6 0.2
v -0.5 0 0.0999999
v -0.5 0.1 0.0999999
v -0.5 0.2 0.0999999
v -0.4 0 0.0999999
v -0.4 0.1 0.0999999
v -0.4 0.2 0.0999999
v 0.4 0 0.0999999
v 0.4 0.1 0.0999999
v 0.4 0.2 0.0999999
v 0.5 0 0.0999999
v 0.5 0.1 0.0999999
v 0.5 0.2 0.0999999
v -0.7 0 -0.1
v -0.7 0.1 -0.1
v -0.5 0 -0.1
v -0.5 0.1 -0.1
v 0.5 0 -0.1
v 0.5 0.1 -0.1
v 0.7 0 -0.1
v 0.7 0.1 -0.1
v -0.4 0.3 -0.2
v -0.4 0.4 -0.2
v -0.3 0.3 -0.2
v -0.3 0.4 -0.2
v -0.2 0.3 -0.2
v -0.2 0.4 -0.2
v 0.2 0.3 -0.2
v 0.2 0.4 -0.2
v 0.3 0.3 -0.2
v 0.3 0.4 -0.2
v 0.4 0.3 -0.2
v 0.4 0.4 -0.2
v -0.5 0 -0.3
v -0.5 0.1 -0.3
v -0.5 0.2 -0.3
v -0.4 0 -0.3
v -0.4 0.1 -0.3
v -0.4 0.2 -0.3
v -0.3 0.3 -0.3
v -0.3 0.4 -0.3
v -0.2 0.3 -0.3
v -0.2 0.4 -0.3
v 0.2 0.3 -0.3
v 0.2 0.4 -0.3
v 0.3 0.3 -0.3
v 0.3 0.4 -0.3
v 0.4 0 -0.3
v 0.4 0.1 -0.3
v 0.4 0.2 -0.3
v 0.5 0 -0.3
v 0.5 0.1 -0.3
v 0.5 0.2 -0.3
v -0.6 0 -0.5
v -0.6 0.1 -0.5
v -0.5 0 -0.5
v -0.5 0.1 -0.5
v 0.5 0 -0.5
v 0.5 0.1 -0.5
v 0.6 0 -0.5
v 0.6 0.1 -0.5
v -0.4 0.1 -1.1
v -0.4 0.4 -1.1
v 0.4 0.1 -1.1
v 0.4 0.4 -1.1
v -0.6 0 0.5
v -0.5 0 0.5
v 0.5 0 0.5
v 0.6 0 0.5
v -0.5 0 0.4
v -0.4 0 0.4
v 0.4 0 0.4
v 0.5 0 0.4
v -0.6 0 0.3
v -0.4 0 0.3
v 0.4 0 0.3
v 0.6 0 0.3
v -0.6 0 0.2
v -0.4 0 0.2
v 0.4 0 0.2
v 0.6 0 0.2
v -0.5 0 0.0999999
v -0.4 0 0.0999999
v 0.4 0 0.0999999
v 0.5 0 0.0999999
v -0.7 0 -5.96046e-08
v -0.6 0 -5.96046e-08
v 0.6 0 -5.96046e-08
v 0.7 0 -5.96046e-08
v -0.7 0 -0.1
v -0.5 0 -0.1
v 0.5 0 -0.1
v 0.7 0 -0.1
v -0.6 0 -0.2
v -0.4 0 -0.2
v 0.4 0 -0.2
v 0.6 0 -0.2
v -0.5 0 -0.3
v -0.4 0 -0.3
v 0.4 0 -0.3
v 0.5 0 -0.3
v -0.6 0 -0.5
v -0.5 0 -0.5
v 0.5 0 -0.5
v 0.6 0 -0.5
v -0.4 0.1 0.5
v 0.4 0.1 0.5
v -0.4 0.1 0.4
v 0.4 0.1 0.4
v -0.4 0.1 0.3
v 0.4 0.1 0.3
v -0.4 0.1 0.2
v 0.4 0.1 0.2
v -0.4 0.1 0.0999999
v 0.4 0.1 0.0999999
v -0.4 0.1 -0.2
v 0.4 0.1 -0.2
v -0.4 0.1 -0.3
v -0.3 0.1 -0.3
v -0.2 0.1 -0.3
v 0.2 0.1 -0.3
v 0.3 0.1 -0.3
v 0.4 0.1 -0.3
v -0.3 0.1 -0.4
v -0.2 0.1 -0.4
v 0.2 0.1 -0.4
v 0.3 0.1 -0.4
v -0.4 0.1 -1.1
v 0.4 0.1 -1.1
v -0.3 0.3 0.6
v -0.2 0.3 0.6
v 0.2 0.3 0.6
v 0.3 0.3 0.6
v -0.3 0.3 0.5
v -0.2 0.3 0.5
v 0.2 0.3 0.5
v 0.3 0.3 0.5
v -0.3 0.5 0.5
v -0.2 0.5 0.5
v 0.2 0.5 0.5
v 0.3 0.5 0.5
v -0.3 0.5 0.2
v -0.2 0.5 0.2
v 0.2 0.5 0.2
v 0.3 0.5 0.2
v -0.6 0.1 0.5
v -0.5 0.1 0.5
v 0.5 0.1 0.5
v 0.6 0.1 0.5
v -0.5 0.1 0.4
v 0.5 0.1 0.4
v -0.6 0.1 0.3
v -0.5 0.1 0.3
v 0.5 0.1 0.3
v 0.6 0.1 0.3
v -0.6 0.1 0.2
v -0.5 0.1 0.2
v 0.5 0.1 0.2
v 0.6 0.1 0.2
v -0.5 0.1 0.0999999
v 0.5 0.1 0.0999999
v -0.7 0.1 -5.96046e-08
v -0.6 0.1 -5.96046e-08
v 0.6 0.1 -5.96046e-08
v 0.7 0.1 -5.96046e-08
v -0.7 0.1 -0.1
v -0.5 0.1 -0.1
v 0.5 0.1 -0.1
v 0.7 0.1 -0.1
v -0.6 0.1 -0.2
v -0.5 0.1 -0.2
v 0.5 0.1 -0.2
v 0.6 0.1 -0.2
v -0.5 0.1 -0.3
v 0.5 0.1 -0.3
v -0.6 0.1 -0.5
v -0.5 0.1 -0.5
v 0.5 0.1 -0.5
v 0.6 0.1 -0.5
v -0.5 0.2 0.4
v -0.4 0.2 0.4
v 0.4 0.2 0.4
v 0.5 0.2 0.4
v -0.5 0.2 0.3
v -0.4 0.2 0.3
v 0.4 0.2 0.3
v 0.5 0.2 0.3
v -0.5 0.2 0.2
v -0.4 0.2 0.2
v 0.4 0.2 0.2
v 0.5 0.2 0.2
v -0.5 0.2 0.0999999
v -0.4 0.2 0.0999999
v 0.4 0.2 0.0999999
v 0.5 0.2 0.0999999
v -0.5 0.2 -0.2
v -0.4 0.2 -0.2
v 0.4 0.2 -0.2
v 0.5 0.2 -0.2
v -0.5 0.2 -0.3
v -0.4 0.2 -0.3
v 0.4 0.2 -0.3
v 0.5 0.2 -0.3
v -0.4 0.3 -0.2
v -0.3 0.3 -0.2
v -0.2 0.3 -0.2
v 0.2 0.3 -0.2
v 0.3 0.3 -0.2
v 0.4 0.3 -0.2
v -0.4 0.3 -0.3
v -0.3 0.3 -0.3
v -0.2 0.3 -0.3
v 0.2 0.3 -0.3
v 0.3 0.3 -0.3
v 0.4 0.3 -0.3
v -0.3 0.3 -0.4
v -0.2 0.3 -0.4
v 0.2 0.3 -0.4
v 0.3 0.3 -0.4
v -0.4 0.4 0.5
v -0.3 0.4 0.5
v -0.2 0.4 0.5
v 0.2 0.4 0.5
v 0.3 0.4 0.5
v 0.4 0.4 0.5
v -0.4 0.4 -0.2
v -0.3 0.4 -0.2
v -0.2 0.4 -0.2
v 0.2 0.4 -0.2
v 0.3 0.4 -0.2
v 0.4 0.4 -0.2
v -0.4 0.4 -0.3
v -0.3 0.4 -0.3
v -0.2 0.4 -0.3
v 0.2 0.4 -0.3
v 0.3 0.4 -0.3
v 0.4 0.4 -0.3
v -0.3 0.4 -0.4
v -0.2 0.4 -0.4
v 0.2 0.4 -0.4
v 0.3 0.4 -0.4
v -0.4 0.4 -1.1
v 0.4 0.4 -1.1
v -0.3 0.6 0.6
v -0.2 0.6 0.6
v 0.2 0.6 0.6
v 0.3 0.6 0.6
v -0.3 0.6 0.2
v -0.2 0.6 0.2
v 0.2 0.6 0.2
v 0.3 0.6 0.2

# faces
f 3/4/1 2/4/1 1/4/1
f 4/4/1 2/4/1 3/4/1
f 11/4/1 6/4/1 5/4/1
f 12/4/1 6/4/1 11/4/1
f 13/4/1 8/4/1 7/4/1
f 14/4/1 8/4/1 13/4/1
f 15/4/1 10/4/1 9/4/1
f 16/4/1 10/4/1 15/4/1
f 23/4/1 18/4/1 17/4/1
f 24/4/1 18/4/1 23/4/1
f 25/4/1 20/4/1 19/4/1
f 26/4/1 20/4/1 25/4/1
f 27/4/1 22/4/1 21/4/1
f 28/4/1 22/4/1 27/4/1
f 37/4/1 30/4/1 29/4/1
f 38/4/1 32/4/1 31/4/1
f 39/4/1 32/4/1 38/4/1
f 40/4/1 34/4/1 33/4/1
f 41/4/1 34/4/1 40/4/1
f 42/2/1 36/2/1 35/2/1
f 43/2/1 36/2/1 42/2/1
f 44/4/1 41/4/1 40/4/1
f 44/4/1 39/4/1 38/4/1
f 44/4/1 43/4/1 42/4/1
f 44/4/1 42/4/1 41/4/1
f 44/4/1 38/4/1 37/4/1
f 44/4/1 40/4/1 39/4/1
f 45/4/1 43/4/1 44/4/1
f 46/2/1 36/2/1 43/2/1
f 46/4/1 43/4/1 45/4/1
f 47/4/1 37/4/1 29/4/1
f 47/4/1 44/4/1 37/4/1
f 48/4/1 44/4/1 47/4/1
f 49/2/1 46/2/1 45/2/1
f 50/2/1 36/2/1 46/2/1
f 50/2/1 46/2/1 49/2/1
f 55/2/1 52/2/1 51/2/1
f 56/4/1 54/4/1 53/4/1
f 57/4/1 54/4/1 56/4/1
f 58/2/1 55/2/1 51/2/1
f 60/2/1 58/2/1 51/2/1
f 60/2/1 59/2/1 58/2/1
f 61/2/1 59/2/1 60/2/1
f 64/2/1 63/2/1 62/2/1
f 65/2/1 63/2/1 64/2/1
f 70/2/1 67/2/1 66/2/1
f 71/4/1 69/4/1 68/4/1
f 72/4/1 69/4/1 71/4/1
f 73/2/1 70/2/1 66/2/1
f 75/2/1 73/2/1 66/2/1
f 75/2/1 74/2/1 73/2/1
f 76/2/1 74/2/1 75/2/1
f 79/2/1 78/2/1 77/2/1
f 80/2/1 78/2/1 79/2/1
f 87/4/1 82/4/1 81/4/1
f 88/4/1 82/4/1 87/4/1
f 89/4/1 84/4/1 83/4/1
f 90/4/1 84/4/1 89/4/1
f 91/4/1 86/4/1 85/4/1
f 92/4/1 86/4/1 91/4/1
f 99/4/1 94/4/1 93/4/1
f 100/4/1 94/4/1 99/4/1
f 101/4/1 96/4/1 95/4/1
f 102/4/1 96/4/1 101/4/1
f 103/4/1 98/4/1 97/4/1
f 104/4/1 98/4/1 103/4/1
f 105/4/2 106/4/2 111/4/2
f 111/4/2 106/4/2 112/4/2
f 107/4/2 108/4/2 113/4/2
f 113/4/2 108/4/2 114/4/2
f 109/4/2 110/4/2 115/4/2
f 115/4/2 110/4/2 116/4/2
f 117/4/2 118/4/2 123/4/2
f 123/4/2 118/4/2 124/4/2
f 119/4/2 120/4/2 125/4/2
f 125/4/2 120/4/2 126/4/2
f 121/4/2 122/4/2 127/4/2
f 127/4/2 122/4/2 128/4/2
f 129/2/2 130/2/2 131/2/2
f 131/2/2 130/2/2 132/2/2
f 133/2/2 134/2/2 137/2/2
f 135/4/2 136/4/2 138/4/2
f 138/4/2 136/4/2 139/4/2
f 133/2/2 137/2/2 140/2/2
f 133/2/2 140/2/2 142/2/2
f 140/2/2 141/2/2 142/2/2
f 142/2/2 141/2/2 143/2/2
f 144/2/2 145/2/2 146/2/2
f 146/2/2 145/2/2 147/2/2
f 148/2/2 149/2/2 152/2/2
f 150/4/2 151/4/2 153/4/2
f 153/4/2 151/4/2 154/4/2
f 148/2/2 152/2/2 155/2/2
f 148/2/2 155/2/2 157/2/2
f 155/2/2 156/2/2 157/2/2
f 157/2/2 156/2/2 158/2/2
f 159/4/2 160/4/2 167/4/2
f 161/4/2 162/4/2 168/4/2
f 168/4/2 162/4/2 169/4/2
f 163/4/2 164/4/2 170/4/2
f 170/4/2 164/4/2 171/4/2
f 165/2/2 166/2/2 172/2/2
f 172/2/2 166/2/2 173/2/2
f 170/4/2 171/4/2 174/4/2
f 168/4/2 169/4/2 174/4/2
f 172/4/2 173/4/2 174/4/2
f 171/4/2 172/4/2 174/4/2
f 167/4/2 168/4/2 174/4/2
f 169/4/2 170/4/2 174/4/2
f 174/4/2 173/4/2 175/4/2
f 173/2/2 166/2/2 176/2/2
f 175/4/2 173/4/2 176/4/2
f 159/4/2 167/4/2 177/4/2
f 167/4/2 174/4/2 177/4/2
f 177/4/2 174/4/2 178/4/2
f 175/2/2 176/2/2 179/2/2
f 176/2/2 166/2/2 180/2/2
f 179/2/2 176/2/2 180/2/2
f 181/4/2 182/4/2 187/4/2
f 187/4/2 182/4/2 188/4/2
f 183/4/2 184/4/2 189/4/2
f 189/4/2 184/4/2 190/4/2
f 185/4/2 186/4/2 191/4/2
f 191/4/2 186/4/2 192/4/2
f 193/4/2 194/4/2 199/4/2
f 199/4/2 194/4/2 200/4/2
f 195/4/2 196/4/2 201/4/2
f 201/4/2 196/4/2 202/4/2
f 197/4/2 198/4/2 203/4/2
f 203/4/2 198/4/2 204/4/2
f 205/4/2 206/4/2 207/4/2
f 207/4/2 206/4/2 208/4/2
f 211/2/3 210/2/3 209/2/3
f 212/2/3 210/2/3 211/2/3
f 215/2/3 214/2/3 213/2/3
f 216/2/3 214/2/3 215/2/3
f 219/4/3 218/4/3 217/4/3
f 220/4/3 218/4/3 219/4/3
f 223/4/3 222/4/3 221/4/3
f 224/4/3 222/4/3 223/4/3
f 225/4/3 223/4/3 221/4/3
f 227/4/3 225/4/3 221/4/3
f 227/4/3 226/4/3 225/4/3
f 228/4/3 226/4/3 227/4/3
f 229/4/3 227/4/3 221/4/3
f 231/4/3 229/4/3 221/4/3
f 231/4/3 230/4/3 229/4/3
f 232/4/3 230/4/3 231/4/3
f 235/4/3 234/4/3 233/4/3
f 236/4/3 234/4/3 235/4/3
f 240/4/3 238/4/3 237/4/3
f 240/4/3 239/4/3 238/4/3
f 241/4/3 239/4/3 240/4/3
f 242/4/3 239/4/3 241/4/3
f 246/4/3 244/4/3 243/4/3
f 246/4/3 245/4/3 244/4/3
f 247/4/3 245/4/3 246/4/3
f 248/4/3 245/4/3 247/4/3
f 251/4/3 250/4/3 249/4/3
f 253/4/3 251/4/3 249/4/3
f 253/4/3 252/4/3 251/4/3
f 254/4/3 252/4/3 253/4/3
f 255/4/3 252/4/3 254/4/3
f 259/4/3 257/4/3 256/4/3
f 259/4/3 258/4/3 257/4/3
f 260/4/3 258/4/3 259/4/3
f 261/4/3 259/4/3 256/4/3
f 262/4/3 259/4/3 261/4/3
f 265/4/3 264/4/3 263/4/3
f 266/4/3 264/4/3 265/4/3
f 269/4/3 268/4/3 267/4/3
f 270/4/3 268/4/3 269/4/3
f 273/4/3 272/4/3 271/4/3
f 275/4/3 273/4/3 271/4/3
f 275/4/3 274/4/3 273/4/3
f 276/4/3 274/4/3 275/4/3
f 277/4/3 274/4/3 276/4/3
f 281/4/3 279/4/3 278/4/3
f 281/4/3 280/4/3 279/4/3
f 282/4/3 280/4/3 281/4/3
f 283/4/3 281/4/3 278/4/3
f 284/4/3 281/4/3 283/4/3
f 287/2/3 286/2/3 285/2/3
f 288/2/3 286/2/3 287/2/3
f 291/2/3 290/2/3 289/2/3
f 292/2/3 290/2/3 291/2/3
f 295/2/3 294/2/3 293/2/3
f 296/2/3 294/2/3 295/2/3
f 299/2/3 298/2/3 297/2/3
f 300/2/3 298/2/3 299/2/3
f 303/2/3 302/2/3 301/2/3
f 304/2/3 302/2/3 303/2/3
f 305/2/4 306/2/4 307/2/4
f 307/2/4 306/2/4 308/2/4
f 309/2/4 310/2/4 311/2/4
f 311/2/4 310/2/4 312/2/4
f 313/4/4 314/4/4 315/4/4
f 313/4/4 315/4/4 317/4/4
f 315/4/4 316/4/4 317/4/4
f 317/4/4 316/4/4 318/4/4
f 318/4/4 316/4/4 319/4/4
f 320/4/4 321/4/4 323/4/4
f 321/4/4 322/4/4 323/4/4
f 323/4/4 322/4/4 324/4/4
f 320/4/4 323/4/4 325/4/4
f 325/4/4 323/4/4 326/4/4
f 327/2/4 328/2/4 329/2/4
f 329/2/4 328/2/4 330/2/4
f 331/2/4 332/2/4 333/2/4
f 333/2/4 332/2/4 334/2/4
f 335/4/4 336/4/4 338/4/4
f 336/4/4 337/4/4 338/4/4
f 338/4/4 337/4/4 339/4/4
f 339/4/4 337/4/4 340/4/4
f 341/4/4 342/4/4 344/4/4
f 342/4/4 343/4/4 344/4/4
f 344/4/4 343/4/4 345/4/4
f 345/4/4 343/4/4 346/4/4
f 347/4/4 348/4/4 349/4/4
f 349/4/4 348/4/4 350/4/4
f 351/4/4 352/4/4 353/4/4
f 353/4/4 352/4/4 354/4/4
f 355/4/4 356/4/4 357/4/4
f 357/4/4 356/4/4 358/4/4
f 359/4/4 360/4/4 361/4/4
f 361/4/4 360/4/4 362/4/4
f 363/4/4 364/4/4 365/4/4
f 365/4/4 364/4/4 366/4/4
f 367/4/4 368/4/4 370/4/4
f 368/4/4 369/4/4 370/4/4
f 370/4/4 369/4/4 371/4/4
f 371/4/4 369/4/4 372/4/4
f 373/4/4 374/4/4 375/4/4
f 375/4/4 374/4/4 376/4/4
f 377/4/4 378/4/4 379/4/4
f 379/4/4 378/4/4 380/4/4
f 381/4/4 382/4/4 384/4/4
f 382/4/4 383/4/4 384/4/4
f 384/4/4 383/4/4 385/4/4
f 385/4/4 383/4/4 386/4/4
f 387/4/4 388/4/4 389/4/4
f 389/4/4 388/4/4 390/4/4
f 391/4/4 392/4/4 393/4/4
f 393/4/4 392/4/4 394/4/4
f 395/2/4 396/2/4 397/2/4
f 397/2/4 396/2/4 398/2/4
f 403/4/5 400/4/5 399/4/5
f 406/4/5 402/4/5 401/4/5
f 407/4/5 404/4/5 403/4/5
f 407/4/5 403/4/5 399/4/5
f 408/4/5 404/4/5 407/4/5
f 409/4/5 406/4/5 405/4/5
f 410/4/5 402/4/5 406/4/5
f 410/4/5 406/4/5 409/4/5
f 415/4/5 412/4/5 411/4/5
f 416/4/5 412/4/5 415/4/5
f 417/4/5 414/4/5 413/4/5
f 418/4/5 414/4/5 417/4/5
f 420/4/5 415/4/5 411/4/5
f 421/4/5 414/4/5 418/4/5
f 423/4/5 420/4/5 419/4/5
f 424/4/5 415/4/5 420/4/5
f 424/4/5 420/4/5 423/4/5
f 425/4/5 421/4/5 418/4/5
f 425/4/5 422/4/5 421/4/5
f 426/4/5 422/4/5 425/4/5
f 431/4/5 428/4/5 427/4/5
f 432/4/5 428/4/5 431/4/5
f 433/4/5 430/4/5 429/4/5
f 434/4/5 430/4/5 433/4/5
f 435/4/5 431/4/5 427/4/5
f 436/4/5 431/4/5 435/4/5
f 437/4/5 430/4/5 434/4/5
f 438/4/5 430/4/5 437/4/5
f 441/4/5 440/4/5 439/4/5
f 442/4/5 440/4/5 441/4/5
f 443/4/5 442/4/5 441/4/5
f 444/4/5 442/4/5 443/4/5
f 445/4/5 444/4/5 443/4/5
f 446/4/5 444/4/5 445/4/5
f 447/4/5 446/4/5 445/4/5
f 448/4/5 446/4/5 447/4/5
f 449/4/5 448/4/5 447/4/5
f 450/4/5 448/4/5 449/4/5
f 451/4/5 450/4/5 449/4/5
f 452/4/5 450/4/5 451/4/5
f 453/4/5 450/4/5 452/4/5
f 454/4/5 450/4/5 453/4/5
f 455/4/5 450/4/5 454/4/5
f 456/4/5 450/4/5 455/4/5
f 457/2/5 452/2/5 451/2/5
f 457/4/5 453/4/5 452/4/5
f 458/2/5 454/2/5 453/2/5
f 458/4/5 453/4/5 457/4/5
f 459/4/5 455/4/5 454/4/5
f 459/2/5 454/2/5 458/2/5
f 460/2/5 456/2/5 455/2/5
f 460/4/5 455/4/5 459/4/5
f 461/2/5 459/2/5 458/2/5
f 461/2/5 457/2/5 451/2/5
f 461/2/5 460/2/5 459/2/5
f 461/2/5 458/2/5 457/2/5
f 462/2/5 456/2/5 460/2/5
f 462/2/5 460/2/5 461/2/5
f 467/2/5 464/2/5 463/2/5
f 468/2/5 464/2/5 467/2/5
f 469/2/5 466/2/5 465/2/5
f 470/2/5 466/2/5 469/2/5
f 475/2/5 472/2/5 471/2/5
f 476/2/5 472/2/5 475/2/5
f 477/2/5 474/2/5 473/2/5
f 478/2/5 474/2/5 477/2/5
f 479/4/6 480/4/6 483/4/6
f 481/4/6 482/4/6 484/4/6
f 479/4/6 483/4/6 485/4/6
f 485/4/6 483/4/6 486/4/6
f 484/4/6 482/4/6 487/4/6
f 487/4/6 482/4/6 488/4/6
f 489/4/6 490/4/6 493/4/6
f 491/4/6 492/4/6 494/4/6
f 489/4/6 493/4/6 496/4/6
f 494/4/6 492/4/6 497/4/6
f 495/4/6 496/4/6 499/4/6
f 496/4/6 493/4/6 500/4/6
f 499/4/6 496/4/6 500/4/6
f 494/4/6 497/4/6 501/4/6
f 497/4/6 498/4/6 501/4/6
f 501/4/6 498/4/6 502/4/6
f 503/4/6 504/4/6 507/4/6
f 505/4/6 506/4/6 508/4/6
f 503/4/6 507/4/6 509/4/6
f 509/4/6 507/4/6 510/4/6
f 508/4/6 506/4/6 511/4/6
f 511/4/6 506/4/6 512/4/6
f 513/4/6 514/4/6 517/4/6
f 517/4/6 514/4/6 518/4/6
f 515/4/6 516/4/6 519/4/6
f 519/4/6 516/4/6 520/4/6
f 521/4/6 522/4/6 525/4/6
f 525/4/6 522/4/6 526/4/6
f 523/4/6 524/4/6 527/4/6
f 527/4/6 524/4/6 528/4/6
f 529/4/6 530/4/6 533/4/6
f 533/4/6 530/4/6 534/4/6
f 531/4/6 532/4/6 535/4/6
f 535/4/6 532/4/6 536/4/6
f 537/4/6 538/4/6 543/4/6
f 543/4/6 538/4/6 544/4/6
f 539/4/6 540/4/6 545/4/6
f 545/4/6 540/4/6 546/4/6
f 541/4/6 542/4/6 547/4/6
f 547/4/6 542/4/6 548/4/6
f 544/4/6 545/4/6 549/4/6
f 549/4/6 545/4/6 550/4/6
f 546/4/6 547/4/6 551/4/6
f 551/4/6 547/4/6 552/4/6
f 553/4/6 554/4/6 559/4/6
f 557/4/6 558/4/6 559/4/6
f 556/4/6 557/4/6 559/4/6
f 555/4/6 556/4/6 559/4/6
f 554/4/6 555/4/6 559/4/6
f 559/4/6 558/4/6 560/4/6
f 560/4/6 558/4/6 561/4/6
f 561/4/6 558/4/6 562/4/6
f 562/4/6 558/4/6 563/4/6
f 563/4/6 558/4/6 564/4/6
f 560/4/6 561/4/6 566/4/6
f 566/4/6 561/4/6 567/4/6
f 562/4/6 563/4/6 568/4/6
f 568/4/6 563/4/6 569/4/6
f 565/2/6 566/2/6 571/2/6
f 567/2/6 568/2/6 572/2/6
f 572/2/6 568/2/6 573/2/6
f 569/2/6 570/2/6 574/2/6
f 572/2/6 573/2/6 575/2/6
f 573/2/6 574/2/6 575/2/6
f 565/2/6 571/2/6 575/2/6
f 571/2/6 572/2/6 575/2/6
f 574/2/6 570/2/6 576/2/6
f 575/2/6 574/2/6 576/2/6
f 577/2/6 578/2/6 581/2/6
f 581/2/6 578/2/6 582/2/6
f 579/2/6 580/2/6 583/2/6
f 583/2/6 580/2/6 584/2/6
