# MagicaVoxel @ Ephtracy

# group
o 

# material
mtllib panel_up.vox.mtl
usemtl palette

# normals
vn -1 0 0
vn 1 0 0
vn 0 0 1
vn 0 0 -1
vn 0 -1 0
vn 0 1 0

# texcoords
vt 0.841797 0.5
vt 0.962891 0.5
vt 0.982422 0.5

# verts
v -2 0 2
v -2 0 -2
v -2 0.2 2
v -2 0.2 -2
v -1.2 0.2 1.2
v -1.2 0.2 -1.2
v -1.2 0.5 1.2
v -1.2 0.5 -1.2
v 1.2 0.2 1.2
v 1.2 0.2 -1.2
v 1.2 0.5 1.2
v 1.2 0.5 -1.2
v 2 0 2
v 2 0 -2
v 2 0.2 2
v 2 0.2 -2
v -2 0 2
v -2 0.2 2
v 2 0 2
v 2 0.2 2
v -1.2 0.2 1.2
v -1.2 0.5 1.2
v 1.2 0.2 1.2
v 1.2 0.5 1.2
v -1.2 0.2 -1.2
v -1.2 0.5 -1.2
v 1.2 0.2 -1.2
v 1.2 0.5 -1.2
v -2 0 -2
v -2 0.2 -2
v 2 0 -2
v 2 0.2 -2
v -2 0 2
v 2 0 2
v -2 0 -2
v 2 0 -2
v -2 0.2 2
v 2 0.2 2
v -1.8 0.2 1.8
v -1.2 0.2 1.8
v 1.2 0.2 1.8
v 1.8 0.2 1.8
v -1.6 0.2 1.6
v -1.2 0.2 1.6
v 1.2 0.2 1.6
v 1.6 0.2 1.6
v -1.4 0.2 1.4
v 1.4 0.2 1.4
v -1.8 0.2 1.2
v -1.6 0.2 1.2
v -1.2 0.2 1.2
v 1.2 0.2 1.2
v 1.6 0.2 1.2
v 1.8 0.2 1.2
v -1.8 0.2 -1.2
v -1.6 0.2 -1.2
v -1.2 0.2 -1.2
v 1.2 0.2 -1.2
v 1.6 0.2 -1.2
v 1.8 0.2 -1.2
v -1.4 0.2 -1.4
v 1.4 0.2 -1.4
v -1.6 0.2 -1.6
v -1.2 0.2 -1.6
v 1.2 0.2 -1.6
v 1.6 0.2 -1.6
v -1.8 0.2 -1.8
v -1.2 0.2 -1.8
v 1.2 0.2 -1.8
v 1.8 0.2 -1.8
v -2 0.2 -2
v 2 0.2 -2
v -1.2 0.5 1.2
v 1.2 0.5 1.2
v -1.2 0.5 -1.2
v 1.2 0.5 -1.2

# faces
f 3/2/1 2/2/1 1/2/1
f 4/2/1 2/2/1 3/2/1
f 7/1/1 6/1/1 5/1/1
f 8/1/1 6/1/1 7/1/1
f 9/1/2 10/1/2 11/1/2
f 11/1/2 10/1/2 12/1/2
f 13/2/2 14/2/2 15/2/2
f 15/2/2 14/2/2 16/2/2
f 19/2/3 18/2/3 17/2/3
f 20/2/3 18/2/3 19/2/3
f 23/1/3 22/1/3 21/1/3
f 24/1/3 22/1/3 23/1/3
f 25/1/4 26/1/4 27/1/4
f 27/1/4 26/1/4 28/1/4
f 29/2/4 30/2/4 31/2/4
f 31/2/4 30/2/4 32/2/4
f 35/2/5 34/2/5 33/2/5
f 36/2/5 34/2/5 35/2/5
f 37/2/6 38/2/6 39/2/6
f 39/2/6 38/2/6 40/2/6
f 40/2/6 38/2/6 41/2/6
f 41/2/6 38/2/6 42/2/6
f 39/3/6 40/3/6 43/3/6
f 40/2/6 41/2/6 44/2/6
f 43/3/6 40/3/6 44/3/6
f 41/3/6 42/3/6 45/3/6
f 44/2/6 41/2/6 45/2/6
f 45/3/6 42/3/6 46/3/6
f 43/2/6 44/2/6 47/2/6
f 44/2/6 45/2/6 47/2/6
f 45/2/6 46/2/6 47/2/6
f 47/2/6 46/2/6 48/2/6
f 37/2/6 39/2/6 49/2/6
f 39/3/6 43/3/6 49/3/6
f 43/2/6 47/2/6 50/2/6
f 49/3/6 43/3/6 50/3/6
f 47/3/6 48/3/6 51/3/6
f 51/3/6 48/3/6 52/3/6
f 48/2/6 46/2/6 53/2/6
f 46/3/6 42/3/6 53/3/6
f 42/2/6 38/2/6 54/2/6
f 53/3/6 42/3/6 54/3/6
f 37/2/6 49/2/6 55/2/6
f 49/2/6 50/2/6 55/2/6
f 50/2/6 47/2/6 56/2/6
f 55/2/6 50/2/6 56/2/6
f 47/3/6 51/3/6 57/3/6
f 52/3/6 48/3/6 58/3/6
f 48/2/6 53/2/6 59/2/6
f 53/2/6 54/2/6 59/2/6
f 54/2/6 38/2/6 60/2/6
f 59/2/6 54/2/6 60/2/6
f 47/3/6 57/3/6 61/3/6
f 57/3/6 58/3/6 61/3/6
f 56/2/6 47/2/6 61/2/6
f 48/2/6 59/2/6 62/2/6
f 61/3/6 58/3/6 62/3/6
f 58/3/6 48/3/6 62/3/6
f 56/2/6 61/2/6 63/2/6
f 55/3/6 56/3/6 63/3/6
f 61/2/6 62/2/6 63/2/6
f 63/2/6 62/2/6 64/2/6
f 64/2/6 62/2/6 65/2/6
f 59/3/6 60/3/6 66/3/6
f 65/2/6 62/2/6 66/2/6
f 62/2/6 59/2/6 66/2/6
f 37/2/6 55/2/6 67/2/6
f 63/3/6 64/3/6 67/3/6
f 55/3/6 63/3/6 67/3/6
f 64/2/6 65/2/6 68/2/6
f 67/3/6 64/3/6 68/3/6
f 65/3/6 66/3/6 69/3/6
f 68/2/6 65/2/6 69/2/6
f 60/2/6 38/2/6 70/2/6
f 69/3/6 66/3/6 70/3/6
f 66/3/6 60/3/6 70/3/6
f 68/2/6 69/2/6 71/2/6
f 37/2/6 67/2/6 71/2/6
f 69/2/6 70/2/6 71/2/6
f 67/2/6 68/2/6 71/2/6
f 70/2/6 38/2/6 72/2/6
f 71/2/6 70/2/6 72/2/6
f 73/1/6 74/1/6 75/1/6
f 75/1/6 74/1/6 76/1/6
